<mxfile host="app.diagrams.net" modified="2023-06-22T13:27:17.416Z" agent="Mozilla/5.0 (Windows NT 10.0; Win64; x64) AppleWebKit/537.36 (KHTML, like Gecko) Chrome/114.0.0.0 Safari/537.36 Edg/114.0.1823.51" etag="0aeP5H8fdJRSlBUNiVNC" version="21.5.0" type="google">
  <diagram name="Page-1" id="u8LZw5R5EZJJty8M6dNz">
    <mxGraphModel grid="1" page="1" gridSize="10" guides="1" tooltips="1" connect="1" arrows="1" fold="1" pageScale="1" pageWidth="850" pageHeight="1100" math="0" shadow="0">
      <root>
        <mxCell id="0" />
        <mxCell id="1" parent="0" />
        <mxCell id="a9qANa3PcaQQ9SdjPRjh-1" value="User" style="swimlane;fontStyle=2;align=center;verticalAlign=top;childLayout=stackLayout;horizontal=1;startSize=26;horizontalStack=0;resizeParent=1;resizeLast=0;collapsible=1;marginBottom=0;rounded=0;shadow=0;strokeWidth=1;" vertex="1" parent="1">
          <mxGeometry x="2070" y="130" width="240" height="782" as="geometry">
            <mxRectangle x="230" y="140" width="160" height="26" as="alternateBounds" />
          </mxGeometry>
        </mxCell>
        <mxCell id="a9qANa3PcaQQ9SdjPRjh-2" value="-user_id : String" style="text;align=left;verticalAlign=top;spacingLeft=4;spacingRight=4;overflow=hidden;rotatable=0;points=[[0,0.5],[1,0.5]];portConstraint=eastwest;" vertex="1" parent="a9qANa3PcaQQ9SdjPRjh-1">
          <mxGeometry y="26" width="240" height="26" as="geometry" />
        </mxCell>
        <mxCell id="a9qANa3PcaQQ9SdjPRjh-3" value="-username : String" style="text;align=left;verticalAlign=top;spacingLeft=4;spacingRight=4;overflow=hidden;rotatable=0;points=[[0,0.5],[1,0.5]];portConstraint=eastwest;rounded=0;shadow=0;html=0;" vertex="1" parent="a9qANa3PcaQQ9SdjPRjh-1">
          <mxGeometry y="52" width="240" height="26" as="geometry" />
        </mxCell>
        <mxCell id="a9qANa3PcaQQ9SdjPRjh-4" value="-user_password: String " style="text;align=left;verticalAlign=top;spacingLeft=4;spacingRight=4;overflow=hidden;rotatable=0;points=[[0,0.5],[1,0.5]];portConstraint=eastwest;rounded=0;shadow=0;html=0;" vertex="1" parent="a9qANa3PcaQQ9SdjPRjh-1">
          <mxGeometry y="78" width="240" height="32" as="geometry" />
        </mxCell>
        <mxCell id="a9qANa3PcaQQ9SdjPRjh-5" value="-email&amp;nbsp;: String" style="text;whiteSpace=wrap;html=1;" vertex="1" parent="a9qANa3PcaQQ9SdjPRjh-1">
          <mxGeometry y="110" width="240" height="30" as="geometry" />
        </mxCell>
        <mxCell id="a9qANa3PcaQQ9SdjPRjh-6" value="-phone&amp;nbsp;: String" style="text;whiteSpace=wrap;html=1;" vertex="1" parent="a9qANa3PcaQQ9SdjPRjh-1">
          <mxGeometry y="140" width="240" height="30" as="geometry" />
        </mxCell>
        <mxCell id="a9qANa3PcaQQ9SdjPRjh-7" value="-name&amp;nbsp;: String" style="text;whiteSpace=wrap;html=1;" vertex="1" parent="a9qANa3PcaQQ9SdjPRjh-1">
          <mxGeometry y="170" width="240" height="30" as="geometry" />
        </mxCell>
        <mxCell id="a9qANa3PcaQQ9SdjPRjh-8" value="-avatar&amp;nbsp;: String" style="text;whiteSpace=wrap;html=1;" vertex="1" parent="a9qANa3PcaQQ9SdjPRjh-1">
          <mxGeometry y="200" width="240" height="30" as="geometry" />
        </mxCell>
        <mxCell id="a9qANa3PcaQQ9SdjPRjh-9" value="-role : int" style="text;whiteSpace=wrap;html=1;" vertex="1" parent="a9qANa3PcaQQ9SdjPRjh-1">
          <mxGeometry y="230" width="240" height="30" as="geometry" />
        </mxCell>
        <mxCell id="a9qANa3PcaQQ9SdjPRjh-10" value="-ggid&amp;nbsp;: String" style="text;whiteSpace=wrap;html=1;" vertex="1" parent="a9qANa3PcaQQ9SdjPRjh-1">
          <mxGeometry y="260" width="240" height="30" as="geometry" />
        </mxCell>
        <mxCell id="a9qANa3PcaQQ9SdjPRjh-11" value="-wishlist_id&amp;nbsp;: String" style="text;whiteSpace=wrap;html=1;" vertex="1" parent="a9qANa3PcaQQ9SdjPRjh-1">
          <mxGeometry y="290" width="240" height="30" as="geometry" />
        </mxCell>
        <mxCell id="a9qANa3PcaQQ9SdjPRjh-12" value="-self_description&amp;nbsp;: String" style="text;whiteSpace=wrap;html=1;" vertex="1" parent="a9qANa3PcaQQ9SdjPRjh-1">
          <mxGeometry y="320" width="240" height="30" as="geometry" />
        </mxCell>
        <mxCell id="a9qANa3PcaQQ9SdjPRjh-13" value="-salt&amp;nbsp;: String" style="text;whiteSpace=wrap;html=1;" vertex="1" parent="a9qANa3PcaQQ9SdjPRjh-1">
          <mxGeometry y="350" width="240" height="30" as="geometry" />
        </mxCell>
        <mxCell id="a9qANa3PcaQQ9SdjPRjh-14" value="-bankingAccountNumber&amp;nbsp;: String" style="text;whiteSpace=wrap;html=1;" vertex="1" parent="a9qANa3PcaQQ9SdjPRjh-1">
          <mxGeometry y="380" width="240" height="30" as="geometry" />
        </mxCell>
        <mxCell id="a9qANa3PcaQQ9SdjPRjh-15" value="-subname&amp;nbsp;: String" style="text;whiteSpace=wrap;html=1;" vertex="1" parent="a9qANa3PcaQQ9SdjPRjh-1">
          <mxGeometry y="410" width="240" height="30" as="geometry" />
        </mxCell>
        <mxCell id="a9qANa3PcaQQ9SdjPRjh-16" value="-dob : Date" style="text;whiteSpace=wrap;html=1;" vertex="1" parent="a9qANa3PcaQQ9SdjPRjh-1">
          <mxGeometry y="440" width="240" height="30" as="geometry" />
        </mxCell>
        <mxCell id="a9qANa3PcaQQ9SdjPRjh-17" value="-signAt : Date" style="text;whiteSpace=wrap;html=1;" vertex="1" parent="a9qANa3PcaQQ9SdjPRjh-1">
          <mxGeometry y="470" width="240" height="30" as="geometry" />
        </mxCell>
        <mxCell id="a9qANa3PcaQQ9SdjPRjh-18" value="" style="line;html=1;strokeWidth=1;align=left;verticalAlign=middle;spacingTop=-1;spacingLeft=3;spacingRight=3;rotatable=0;labelPosition=right;points=[];portConstraint=eastwest;" vertex="1" parent="a9qANa3PcaQQ9SdjPRjh-1">
          <mxGeometry y="500" width="240" height="8" as="geometry" />
        </mxCell>
        <mxCell id="a9qANa3PcaQQ9SdjPRjh-19" value="+Getter &amp;amp; Setter&amp;nbsp;" style="text;whiteSpace=wrap;html=1;" vertex="1" parent="a9qANa3PcaQQ9SdjPRjh-1">
          <mxGeometry y="508" width="240" height="30" as="geometry" />
        </mxCell>
        <mxCell id="a9qANa3PcaQQ9SdjPRjh-20" value="+signUp(username:String,&lt;br&gt;password:String,email:String):void&amp;nbsp;" style="text;whiteSpace=wrap;html=1;" vertex="1" parent="a9qANa3PcaQQ9SdjPRjh-1">
          <mxGeometry y="538" width="240" height="30" as="geometry" />
        </mxCell>
        <mxCell id="a9qANa3PcaQQ9SdjPRjh-21" value="+listAll():List&amp;lt;User&amp;gt;" style="text;whiteSpace=wrap;html=1;" vertex="1" parent="a9qANa3PcaQQ9SdjPRjh-1">
          <mxGeometry y="568" width="240" height="30" as="geometry" />
        </mxCell>
        <mxCell id="a9qANa3PcaQQ9SdjPRjh-22" value="+login(username:String,password:String)&lt;br&gt;:User" style="text;whiteSpace=wrap;html=1;" vertex="1" parent="a9qANa3PcaQQ9SdjPRjh-1">
          <mxGeometry y="598" width="240" height="30" as="geometry" />
        </mxCell>
        <mxCell id="a9qANa3PcaQQ9SdjPRjh-23" value="+getUserbyID(id:String):User" style="text;whiteSpace=wrap;html=1;" vertex="1" parent="a9qANa3PcaQQ9SdjPRjh-1">
          <mxGeometry y="628" width="240" height="30" as="geometry" />
        </mxCell>
        <mxCell id="a9qANa3PcaQQ9SdjPRjh-24" value="+getUsername(username:String):boolean" style="text;whiteSpace=wrap;html=1;" vertex="1" parent="a9qANa3PcaQQ9SdjPRjh-1">
          <mxGeometry y="658" width="240" height="30" as="geometry" />
        </mxCell>
        <mxCell id="a9qANa3PcaQQ9SdjPRjh-25" value="+update(User:Object):boolean" style="text;whiteSpace=wrap;html=1;" vertex="1" parent="a9qANa3PcaQQ9SdjPRjh-1">
          <mxGeometry y="688" width="240" height="30" as="geometry" />
        </mxCell>
        <mxCell id="a9qANa3PcaQQ9SdjPRjh-26" value="+changePasswd(password:String):boolean" style="text;whiteSpace=wrap;html=1;" vertex="1" parent="a9qANa3PcaQQ9SdjPRjh-1">
          <mxGeometry y="718" width="240" height="32" as="geometry" />
        </mxCell>
        <mxCell id="a9qANa3PcaQQ9SdjPRjh-27" value="+delete(id:String):boolean" style="text;whiteSpace=wrap;html=1;" vertex="1" parent="a9qANa3PcaQQ9SdjPRjh-1">
          <mxGeometry y="750" width="240" height="32" as="geometry" />
        </mxCell>
        <mxCell id="a9qANa3PcaQQ9SdjPRjh-28" value="Hotel" style="swimlane;fontStyle=0;align=center;verticalAlign=top;childLayout=stackLayout;horizontal=1;startSize=26;horizontalStack=0;resizeParent=1;resizeLast=0;collapsible=1;marginBottom=0;rounded=0;shadow=0;strokeWidth=1;" vertex="1" parent="1">
          <mxGeometry x="700" y="30" width="225" height="950" as="geometry">
            <mxRectangle x="130" y="380" width="160" height="26" as="alternateBounds" />
          </mxGeometry>
        </mxCell>
        <mxCell id="a9qANa3PcaQQ9SdjPRjh-29" value="-hotelId : String" style="text;align=left;verticalAlign=top;spacingLeft=4;spacingRight=4;overflow=hidden;rotatable=0;points=[[0,0.5],[1,0.5]];portConstraint=eastwest;" vertex="1" parent="a9qANa3PcaQQ9SdjPRjh-28">
          <mxGeometry y="26" width="225" height="26" as="geometry" />
        </mxCell>
        <mxCell id="a9qANa3PcaQQ9SdjPRjh-30" value="-userId  : String" style="text;align=left;verticalAlign=top;spacingLeft=4;spacingRight=4;overflow=hidden;rotatable=0;points=[[0,0.5],[1,0.5]];portConstraint=eastwest;rounded=0;shadow=0;html=0;" vertex="1" parent="a9qANa3PcaQQ9SdjPRjh-28">
          <mxGeometry y="52" width="225" height="26" as="geometry" />
        </mxCell>
        <mxCell id="a9qANa3PcaQQ9SdjPRjh-31" value="-hotelTypeId&amp;nbsp;: String" style="text;whiteSpace=wrap;html=1;" vertex="1" parent="a9qANa3PcaQQ9SdjPRjh-28">
          <mxGeometry y="78" width="225" height="32" as="geometry" />
        </mxCell>
        <mxCell id="a9qANa3PcaQQ9SdjPRjh-32" value="-hotelName&amp;nbsp;: String" style="text;whiteSpace=wrap;html=1;" vertex="1" parent="a9qANa3PcaQQ9SdjPRjh-28">
          <mxGeometry y="110" width="225" height="30" as="geometry" />
        </mxCell>
        <mxCell id="a9qANa3PcaQQ9SdjPRjh-33" value="-backgroundImg&amp;nbsp;: String" style="text;whiteSpace=wrap;html=1;" vertex="1" parent="a9qANa3PcaQQ9SdjPRjh-28">
          <mxGeometry y="140" width="225" height="30" as="geometry" />
        </mxCell>
        <mxCell id="a9qANa3PcaQQ9SdjPRjh-34" value="-isVerified : boolean" style="text;whiteSpace=wrap;html=1;" vertex="1" parent="a9qANa3PcaQQ9SdjPRjh-28">
          <mxGeometry y="170" width="225" height="30" as="geometry" />
        </mxCell>
        <mxCell id="a9qANa3PcaQQ9SdjPRjh-35" value="-isHasCamera : boolean" style="text;whiteSpace=wrap;html=1;" vertex="1" parent="a9qANa3PcaQQ9SdjPRjh-28">
          <mxGeometry y="200" width="225" height="30" as="geometry" />
        </mxCell>
        <mxCell id="a9qANa3PcaQQ9SdjPRjh-36" value="-isAllowPet : boolean" style="text;whiteSpace=wrap;html=1;" vertex="1" parent="a9qANa3PcaQQ9SdjPRjh-28">
          <mxGeometry y="230" width="225" height="30" as="geometry" />
        </mxCell>
        <mxCell id="a9qANa3PcaQQ9SdjPRjh-37" value="-description&amp;nbsp;&amp;nbsp;: String" style="text;whiteSpace=wrap;html=1;" vertex="1" parent="a9qANa3PcaQQ9SdjPRjh-28">
          <mxGeometry y="260" width="225" height="30" as="geometry" />
        </mxCell>
        <mxCell id="a9qANa3PcaQQ9SdjPRjh-38" value="-country&amp;nbsp;: String" style="text;whiteSpace=wrap;html=1;" vertex="1" parent="a9qANa3PcaQQ9SdjPRjh-28">
          <mxGeometry y="290" width="225" height="30" as="geometry" />
        </mxCell>
        <mxCell id="a9qANa3PcaQQ9SdjPRjh-39" value="-district&amp;nbsp;: String" style="text;whiteSpace=wrap;html=1;" vertex="1" parent="a9qANa3PcaQQ9SdjPRjh-28">
          <mxGeometry y="320" width="225" height="30" as="geometry" />
        </mxCell>
        <mxCell id="a9qANa3PcaQQ9SdjPRjh-40" value="-address&amp;nbsp;: String" style="text;whiteSpace=wrap;html=1;" vertex="1" parent="a9qANa3PcaQQ9SdjPRjh-28">
          <mxGeometry y="350" width="225" height="30" as="geometry" />
        </mxCell>
        <mxCell id="a9qANa3PcaQQ9SdjPRjh-41" value="-city&amp;nbsp;: String" style="text;whiteSpace=wrap;html=1;" vertex="1" parent="a9qANa3PcaQQ9SdjPRjh-28">
          <mxGeometry y="380" width="225" height="30" as="geometry" />
        </mxCell>
        <mxCell id="a9qANa3PcaQQ9SdjPRjh-42" value="-closing&amp;nbsp;: String" style="text;whiteSpace=wrap;html=1;" vertex="1" parent="a9qANa3PcaQQ9SdjPRjh-28">
          <mxGeometry y="410" width="225" height="30" as="geometry" />
        </mxCell>
        <mxCell id="a9qANa3PcaQQ9SdjPRjh-43" value="-opening&amp;nbsp;: String" style="text;whiteSpace=wrap;html=1;" vertex="1" parent="a9qANa3PcaQQ9SdjPRjh-28">
          <mxGeometry y="440" width="225" height="30" as="geometry" />
        </mxCell>
        <mxCell id="a9qANa3PcaQQ9SdjPRjh-44" value="-checkin&amp;nbsp;: String" style="text;whiteSpace=wrap;html=1;" vertex="1" parent="a9qANa3PcaQQ9SdjPRjh-28">
          <mxGeometry y="470" width="225" height="30" as="geometry" />
        </mxCell>
        <mxCell id="a9qANa3PcaQQ9SdjPRjh-45" value="-checkout&amp;nbsp;: String" style="text;whiteSpace=wrap;html=1;" vertex="1" parent="a9qANa3PcaQQ9SdjPRjh-28">
          <mxGeometry y="500" width="225" height="30" as="geometry" />
        </mxCell>
        <mxCell id="a9qANa3PcaQQ9SdjPRjh-46" value="-averagePirce : int" style="text;whiteSpace=wrap;html=1;" vertex="1" parent="a9qANa3PcaQQ9SdjPRjh-28">
          <mxGeometry y="530" width="225" height="30" as="geometry" />
        </mxCell>
        <mxCell id="a9qANa3PcaQQ9SdjPRjh-47" value="-rating : int" style="text;whiteSpace=wrap;html=1;" vertex="1" parent="a9qANa3PcaQQ9SdjPRjh-28">
          <mxGeometry y="560" width="225" height="30" as="geometry" />
        </mxCell>
        <mxCell id="a9qANa3PcaQQ9SdjPRjh-49" value="-images : List &amp;lt;Image&amp;gt;" style="text;whiteSpace=wrap;html=1;" vertex="1" parent="a9qANa3PcaQQ9SdjPRjh-28">
          <mxGeometry y="590" width="225" height="30" as="geometry" />
        </mxCell>
        <mxCell id="a9qANa3PcaQQ9SdjPRjh-50" value="-reviews : List&amp;lt;Review&amp;gt;" style="text;whiteSpace=wrap;html=1;" vertex="1" parent="a9qANa3PcaQQ9SdjPRjh-28">
          <mxGeometry y="620" width="225" height="30" as="geometry" />
        </mxCell>
        <mxCell id="a9qANa3PcaQQ9SdjPRjh-51" value="-roomType: RoomType" style="text;whiteSpace=wrap;html=1;" vertex="1" parent="a9qANa3PcaQQ9SdjPRjh-28">
          <mxGeometry y="650" width="225" height="30" as="geometry" />
        </mxCell>
        <mxCell id="a9qANa3PcaQQ9SdjPRjh-53" value="-hotelOwner: User" style="text;whiteSpace=wrap;html=1;" vertex="1" parent="a9qANa3PcaQQ9SdjPRjh-28">
          <mxGeometry y="680" width="225" height="30" as="geometry" />
        </mxCell>
        <mxCell id="a9qANa3PcaQQ9SdjPRjh-54" value="-signAt : Date" style="text;whiteSpace=wrap;html=1;" vertex="1" parent="a9qANa3PcaQQ9SdjPRjh-28">
          <mxGeometry y="710" width="225" height="30" as="geometry" />
        </mxCell>
        <mxCell id="a9qANa3PcaQQ9SdjPRjh-55" value="" style="line;html=1;strokeWidth=1;align=left;verticalAlign=middle;spacingTop=-1;spacingLeft=3;spacingRight=3;rotatable=0;labelPosition=right;points=[];portConstraint=eastwest;" vertex="1" parent="a9qANa3PcaQQ9SdjPRjh-28">
          <mxGeometry y="740" width="225" height="8" as="geometry" />
        </mxCell>
        <mxCell id="a9qANa3PcaQQ9SdjPRjh-56" value="+Getter &amp;amp; Setter&amp;nbsp;" style="text;whiteSpace=wrap;html=1;" vertex="1" parent="a9qANa3PcaQQ9SdjPRjh-28">
          <mxGeometry y="748" width="225" height="30" as="geometry" />
        </mxCell>
        <mxCell id="a9qANa3PcaQQ9SdjPRjh-57" value="+getHotelbyID(id:String):Object" style="text;whiteSpace=wrap;html=1;" vertex="1" parent="a9qANa3PcaQQ9SdjPRjh-28">
          <mxGeometry y="778" width="225" height="30" as="geometry" />
        </mxCell>
        <mxCell id="a9qANa3PcaQQ9SdjPRjh-58" value="+update(id:String,hotel:Object):boolean" style="text;whiteSpace=wrap;html=1;" vertex="1" parent="a9qANa3PcaQQ9SdjPRjh-28">
          <mxGeometry y="808" width="225" height="30" as="geometry" />
        </mxCell>
        <mxCell id="a9qANa3PcaQQ9SdjPRjh-59" value="+addNewHotel(newHotel:Object):void" style="text;whiteSpace=wrap;html=1;" vertex="1" parent="a9qANa3PcaQQ9SdjPRjh-28">
          <mxGeometry y="838" width="225" height="30" as="geometry" />
        </mxCell>
        <mxCell id="a9qANa3PcaQQ9SdjPRjh-60" value="+delete(id:String):boolean" style="text;whiteSpace=wrap;html=1;" vertex="1" parent="a9qANa3PcaQQ9SdjPRjh-28">
          <mxGeometry y="868" width="225" height="30" as="geometry" />
        </mxCell>
        <mxCell id="a9qANa3PcaQQ9SdjPRjh-61" value="+mangeHotel(ihoteld:String):Hotel:Object" style="text;whiteSpace=wrap;html=1;" vertex="1" parent="a9qANa3PcaQQ9SdjPRjh-28">
          <mxGeometry y="898" width="225" height="30" as="geometry" />
        </mxCell>
        <mxCell id="a9qANa3PcaQQ9SdjPRjh-62" value="Room" style="swimlane;fontStyle=0;align=center;verticalAlign=top;childLayout=stackLayout;horizontal=1;startSize=26;horizontalStack=0;resizeParent=1;resizeLast=0;collapsible=1;marginBottom=0;rounded=0;shadow=0;strokeWidth=1;" vertex="1" parent="1">
          <mxGeometry x="1070" y="325.24" width="160" height="172" as="geometry">
            <mxRectangle x="550" y="140" width="160" height="26" as="alternateBounds" />
          </mxGeometry>
        </mxCell>
        <mxCell id="a9qANa3PcaQQ9SdjPRjh-63" value="" style="endArrow=diamondThin;endFill=1;endSize=24;html=1;rounded=0;entryX=1.012;entryY=-0.031;entryDx=0;entryDy=0;exitX=1.001;exitY=-0.031;exitDx=0;exitDy=0;entryPerimeter=0;exitPerimeter=0;" edge="1" parent="a9qANa3PcaQQ9SdjPRjh-62">
          <mxGeometry width="160" relative="1" as="geometry">
            <mxPoint x="160.15999999999985" y="27.19399999999996" as="sourcePoint" />
            <mxPoint x="161.91999999999916" y="27.19399999999996" as="targetPoint" />
            <Array as="points">
              <mxPoint x="320" y="26.75999999999999" />
            </Array>
          </mxGeometry>
        </mxCell>
        <mxCell id="a9qANa3PcaQQ9SdjPRjh-64" value="-room_id : String" style="text;align=left;verticalAlign=top;spacingLeft=4;spacingRight=4;overflow=hidden;rotatable=0;points=[[0,0.5],[1,0.5]];portConstraint=eastwest;" vertex="1" parent="a9qANa3PcaQQ9SdjPRjh-62">
          <mxGeometry y="26" width="160" height="26" as="geometry" />
        </mxCell>
        <mxCell id="a9qANa3PcaQQ9SdjPRjh-65" value="-hotel_id : String" style="text;align=left;verticalAlign=top;spacingLeft=4;spacingRight=4;overflow=hidden;rotatable=0;points=[[0,0.5],[1,0.5]];portConstraint=eastwest;rounded=0;shadow=0;html=0;" vertex="1" parent="a9qANa3PcaQQ9SdjPRjh-62">
          <mxGeometry y="52" width="160" height="26" as="geometry" />
        </mxCell>
        <mxCell id="a9qANa3PcaQQ9SdjPRjh-66" value="-room_type_id : String" style="text;align=left;verticalAlign=top;spacingLeft=4;spacingRight=4;overflow=hidden;rotatable=0;points=[[0,0.5],[1,0.5]];portConstraint=eastwest;rounded=0;shadow=0;html=0;" vertex="1" parent="a9qANa3PcaQQ9SdjPRjh-62">
          <mxGeometry y="78" width="160" height="26" as="geometry" />
        </mxCell>
        <mxCell id="a9qANa3PcaQQ9SdjPRjh-67" value="" style="line;html=1;strokeWidth=1;align=left;verticalAlign=middle;spacingTop=-1;spacingLeft=3;spacingRight=3;rotatable=0;labelPosition=right;points=[];portConstraint=eastwest;" vertex="1" parent="a9qANa3PcaQQ9SdjPRjh-62">
          <mxGeometry y="104" width="160" height="8" as="geometry" />
        </mxCell>
        <mxCell id="a9qANa3PcaQQ9SdjPRjh-68" value="+Getter &amp;amp; Setter&amp;nbsp;" style="text;whiteSpace=wrap;html=1;" vertex="1" parent="a9qANa3PcaQQ9SdjPRjh-62">
          <mxGeometry y="112" width="160" height="30" as="geometry" />
        </mxCell>
        <mxCell id="a9qANa3PcaQQ9SdjPRjh-69" value="+delete(String id):boolean" style="text;whiteSpace=wrap;html=1;" vertex="1" parent="a9qANa3PcaQQ9SdjPRjh-62">
          <mxGeometry y="142" width="160" height="30" as="geometry" />
        </mxCell>
        <mxCell id="a9qANa3PcaQQ9SdjPRjh-70" value="Report" style="swimlane;fontStyle=2;align=center;verticalAlign=top;childLayout=stackLayout;horizontal=1;startSize=26;horizontalStack=0;resizeParent=1;resizeLast=0;collapsible=1;marginBottom=0;rounded=0;shadow=0;strokeWidth=1;" vertex="1" parent="1">
          <mxGeometry x="1380" y="869" width="200" height="290" as="geometry">
            <mxRectangle x="230" y="140" width="160" height="26" as="alternateBounds" />
          </mxGeometry>
        </mxCell>
        <mxCell id="a9qANa3PcaQQ9SdjPRjh-71" value="-reportId : String" style="text;align=left;verticalAlign=top;spacingLeft=4;spacingRight=4;overflow=hidden;rotatable=0;points=[[0,0.5],[1,0.5]];portConstraint=eastwest;" vertex="1" parent="a9qANa3PcaQQ9SdjPRjh-70">
          <mxGeometry y="26" width="200" height="26" as="geometry" />
        </mxCell>
        <mxCell id="a9qANa3PcaQQ9SdjPRjh-72" value="-hotelId : String" style="text;align=left;verticalAlign=top;spacingLeft=4;spacingRight=4;overflow=hidden;rotatable=0;points=[[0,0.5],[1,0.5]];portConstraint=eastwest;rounded=0;shadow=0;html=0;" vertex="1" parent="a9qANa3PcaQQ9SdjPRjh-70">
          <mxGeometry y="52" width="200" height="18" as="geometry" />
        </mxCell>
        <mxCell id="a9qANa3PcaQQ9SdjPRjh-73" value="-userId : String" style="text;whiteSpace=wrap;html=1;" vertex="1" parent="a9qANa3PcaQQ9SdjPRjh-70">
          <mxGeometry y="70" width="200" height="20" as="geometry" />
        </mxCell>
        <mxCell id="a9qANa3PcaQQ9SdjPRjh-74" value="-avatar : String" style="text;whiteSpace=wrap;html=1;" vertex="1" parent="a9qANa3PcaQQ9SdjPRjh-70">
          <mxGeometry y="90" width="200" height="20" as="geometry" />
        </mxCell>
        <mxCell id="a9qANa3PcaQQ9SdjPRjh-75" value="-title : String" style="text;whiteSpace=wrap;html=1;" vertex="1" parent="a9qANa3PcaQQ9SdjPRjh-70">
          <mxGeometry y="110" width="200" height="20" as="geometry" />
        </mxCell>
        <mxCell id="a9qANa3PcaQQ9SdjPRjh-76" value="-content : String" style="text;whiteSpace=wrap;html=1;" vertex="1" parent="a9qANa3PcaQQ9SdjPRjh-70">
          <mxGeometry y="130" width="200" height="20" as="geometry" />
        </mxCell>
        <mxCell id="a9qANa3PcaQQ9SdjPRjh-77" value="-reportDate : Date" style="text;whiteSpace=wrap;html=1;" vertex="1" parent="a9qANa3PcaQQ9SdjPRjh-70">
          <mxGeometry y="150" width="200" height="30" as="geometry" />
        </mxCell>
        <mxCell id="a9qANa3PcaQQ9SdjPRjh-78" value="" style="line;html=1;strokeWidth=1;align=left;verticalAlign=middle;spacingTop=-1;spacingLeft=3;spacingRight=3;rotatable=0;labelPosition=right;points=[];portConstraint=eastwest;" vertex="1" parent="a9qANa3PcaQQ9SdjPRjh-70">
          <mxGeometry y="180" width="200" height="8" as="geometry" />
        </mxCell>
        <mxCell id="a9qANa3PcaQQ9SdjPRjh-79" value="+Getter &amp;amp; Setter&amp;nbsp;" style="text;whiteSpace=wrap;html=1;" vertex="1" parent="a9qANa3PcaQQ9SdjPRjh-70">
          <mxGeometry y="188" width="200" height="30" as="geometry" />
        </mxCell>
        <mxCell id="a9qANa3PcaQQ9SdjPRjh-80" value="+getAllReport(mont:int):List&amp;lt;Report&amp;gt;&amp;nbsp;" style="text;whiteSpace=wrap;html=1;" vertex="1" parent="a9qANa3PcaQQ9SdjPRjh-70">
          <mxGeometry y="218" width="200" height="30" as="geometry" />
        </mxCell>
        <mxCell id="a9qANa3PcaQQ9SdjPRjh-81" value="+getReportbyId(reportId:String):&lt;br&gt;Report&amp;nbsp;" style="text;whiteSpace=wrap;html=1;" vertex="1" parent="a9qANa3PcaQQ9SdjPRjh-70">
          <mxGeometry y="248" width="200" height="42" as="geometry" />
        </mxCell>
        <mxCell id="a9qANa3PcaQQ9SdjPRjh-89" value="HotelManage" style="swimlane;fontStyle=0;align=center;verticalAlign=top;childLayout=stackLayout;horizontal=1;startSize=26;horizontalStack=0;resizeParent=1;resizeLast=0;collapsible=1;marginBottom=0;rounded=0;shadow=0;strokeWidth=1;" vertex="1" parent="1">
          <mxGeometry x="1040" y="519" width="220" height="420" as="geometry">
            <mxRectangle x="130" y="380" width="160" height="26" as="alternateBounds" />
          </mxGeometry>
        </mxCell>
        <mxCell id="a9qANa3PcaQQ9SdjPRjh-90" value="-bookingNumber : int" style="text;align=left;verticalAlign=top;spacingLeft=4;spacingRight=4;overflow=hidden;rotatable=0;points=[[0,0.5],[1,0.5]];portConstraint=eastwest;" vertex="1" parent="a9qANa3PcaQQ9SdjPRjh-89">
          <mxGeometry y="26" width="220" height="26" as="geometry" />
        </mxCell>
        <mxCell id="a9qANa3PcaQQ9SdjPRjh-91" value="-accessNumber : int" style="text;align=left;verticalAlign=top;spacingLeft=4;spacingRight=4;overflow=hidden;rotatable=0;points=[[0,0.5],[1,0.5]];portConstraint=eastwest;rounded=0;shadow=0;html=0;" vertex="1" parent="a9qANa3PcaQQ9SdjPRjh-89">
          <mxGeometry y="52" width="220" height="26" as="geometry" />
        </mxCell>
        <mxCell id="a9qANa3PcaQQ9SdjPRjh-92" value="&amp;nbsp;-paymentNumber: int" style="text;whiteSpace=wrap;html=1;" vertex="1" parent="a9qANa3PcaQQ9SdjPRjh-89">
          <mxGeometry y="78" width="220" height="32" as="geometry" />
        </mxCell>
        <mxCell id="a9qANa3PcaQQ9SdjPRjh-93" value="&amp;nbsp;-review: List&amp;lt;String&amp;gt;" style="text;whiteSpace=wrap;html=1;" vertex="1" parent="a9qANa3PcaQQ9SdjPRjh-89">
          <mxGeometry y="110" width="220" height="30" as="geometry" />
        </mxCell>
        <mxCell id="a9qANa3PcaQQ9SdjPRjh-94" value="&amp;nbsp;-userRegisNumber: int&amp;nbsp;" style="text;whiteSpace=wrap;html=1;" vertex="1" parent="a9qANa3PcaQQ9SdjPRjh-89">
          <mxGeometry y="140" width="220" height="30" as="geometry" />
        </mxCell>
        <mxCell id="a9qANa3PcaQQ9SdjPRjh-95" value="&amp;nbsp;-bookingDays: List&amp;lt;Integer&amp;gt;" style="text;whiteSpace=wrap;html=1;" vertex="1" parent="a9qANa3PcaQQ9SdjPRjh-89">
          <mxGeometry y="170" width="220" height="30" as="geometry" />
        </mxCell>
        <mxCell id="a9qANa3PcaQQ9SdjPRjh-96" value="&amp;nbsp;-totalBookingPerDay: List&amp;lt;Integer&amp;gt;" style="text;whiteSpace=wrap;html=1;" vertex="1" parent="a9qANa3PcaQQ9SdjPRjh-89">
          <mxGeometry y="200" width="220" height="30" as="geometry" />
        </mxCell>
        <mxCell id="a9qANa3PcaQQ9SdjPRjh-97" value="&amp;nbsp;-incomeDays: List&amp;lt;Integer&amp;gt;" style="text;whiteSpace=wrap;html=1;" vertex="1" parent="a9qANa3PcaQQ9SdjPRjh-89">
          <mxGeometry y="230" width="220" height="30" as="geometry" />
        </mxCell>
        <mxCell id="a9qANa3PcaQQ9SdjPRjh-98" value="&amp;nbsp;-totalIncomePerDays : List&amp;lt;Integer&amp;gt;" style="text;whiteSpace=wrap;html=1;" vertex="1" parent="a9qANa3PcaQQ9SdjPRjh-89">
          <mxGeometry y="260" width="220" height="30" as="geometry" />
        </mxCell>
        <mxCell id="a9qANa3PcaQQ9SdjPRjh-99" value="&amp;nbsp;-accessDays : List&amp;lt;Integer&amp;gt;" style="text;whiteSpace=wrap;html=1;" vertex="1" parent="a9qANa3PcaQQ9SdjPRjh-89">
          <mxGeometry y="290" width="220" height="30" as="geometry" />
        </mxCell>
        <mxCell id="a9qANa3PcaQQ9SdjPRjh-100" value="&amp;nbsp;-totalAccessPerDays : List&amp;lt;Integer&amp;gt;" style="text;whiteSpace=wrap;html=1;" vertex="1" parent="a9qANa3PcaQQ9SdjPRjh-89">
          <mxGeometry y="320" width="220" height="30" as="geometry" />
        </mxCell>
        <mxCell id="a9qANa3PcaQQ9SdjPRjh-101" value="&amp;nbsp;-month: int" style="text;whiteSpace=wrap;html=1;" vertex="1" parent="a9qANa3PcaQQ9SdjPRjh-89">
          <mxGeometry y="350" width="220" height="30" as="geometry" />
        </mxCell>
        <mxCell id="a9qANa3PcaQQ9SdjPRjh-102" value="" style="line;html=1;strokeWidth=1;align=left;verticalAlign=middle;spacingTop=-1;spacingLeft=3;spacingRight=3;rotatable=0;labelPosition=right;points=[];portConstraint=eastwest;" vertex="1" parent="a9qANa3PcaQQ9SdjPRjh-89">
          <mxGeometry y="380" width="220" height="8" as="geometry" />
        </mxCell>
        <mxCell id="a9qANa3PcaQQ9SdjPRjh-103" value="+Getter &amp;amp; Setter&amp;nbsp;" style="text;whiteSpace=wrap;html=1;" vertex="1" parent="a9qANa3PcaQQ9SdjPRjh-89">
          <mxGeometry y="388" width="220" height="28" as="geometry" />
        </mxCell>
        <mxCell id="a9qANa3PcaQQ9SdjPRjh-113" value="Booking" style="swimlane;fontStyle=2;align=center;verticalAlign=top;childLayout=stackLayout;horizontal=1;startSize=26;horizontalStack=0;resizeParent=1;resizeLast=0;collapsible=1;marginBottom=0;rounded=0;shadow=0;strokeWidth=1;" vertex="1" parent="1">
          <mxGeometry x="1390" y="160" width="210" height="600" as="geometry">
            <mxRectangle x="230" y="140" width="160" height="26" as="alternateBounds" />
          </mxGeometry>
        </mxCell>
        <mxCell id="a9qANa3PcaQQ9SdjPRjh-114" value="-user : User" style="text;align=left;verticalAlign=top;spacingLeft=4;spacingRight=4;overflow=hidden;rotatable=0;points=[[0,0.5],[1,0.5]];portConstraint=eastwest;" vertex="1" parent="a9qANa3PcaQQ9SdjPRjh-113">
          <mxGeometry y="26" width="210" height="34" as="geometry" />
        </mxCell>
        <mxCell id="a9qANa3PcaQQ9SdjPRjh-115" value="-userId: String" style="text;align=left;verticalAlign=top;spacingLeft=4;spacingRight=4;overflow=hidden;rotatable=0;points=[[0,0.5],[1,0.5]];portConstraint=eastwest;" vertex="1" parent="a9qANa3PcaQQ9SdjPRjh-113">
          <mxGeometry y="60" width="210" height="34" as="geometry" />
        </mxCell>
        <mxCell id="a9qANa3PcaQQ9SdjPRjh-116" value="-roomId: String" style="text;align=left;verticalAlign=top;spacingLeft=4;spacingRight=4;overflow=hidden;rotatable=0;points=[[0,0.5],[1,0.5]];portConstraint=eastwest;rounded=0;shadow=0;html=0;" vertex="1" parent="a9qANa3PcaQQ9SdjPRjh-113">
          <mxGeometry y="94" width="210" height="28" as="geometry" />
        </mxCell>
        <mxCell id="a9qANa3PcaQQ9SdjPRjh-117" value="&amp;nbsp;-price: int" style="text;whiteSpace=wrap;html=1;" vertex="1" parent="a9qANa3PcaQQ9SdjPRjh-113">
          <mxGeometry y="122" width="210" height="30" as="geometry" />
        </mxCell>
        <mxCell id="a9qANa3PcaQQ9SdjPRjh-118" value="&amp;nbsp;-bookingId : String" style="text;whiteSpace=wrap;html=1;" vertex="1" parent="a9qANa3PcaQQ9SdjPRjh-113">
          <mxGeometry y="152" width="210" height="30" as="geometry" />
        </mxCell>
        <mxCell id="a9qANa3PcaQQ9SdjPRjh-119" value="&amp;nbsp;-checkin : String" style="text;whiteSpace=wrap;html=1;" vertex="1" parent="a9qANa3PcaQQ9SdjPRjh-113">
          <mxGeometry y="182" width="210" height="30" as="geometry" />
        </mxCell>
        <mxCell id="a9qANa3PcaQQ9SdjPRjh-120" value="&amp;nbsp;-checkout : String" style="text;whiteSpace=wrap;html=1;" vertex="1" parent="a9qANa3PcaQQ9SdjPRjh-113">
          <mxGeometry y="212" width="210" height="30" as="geometry" />
        </mxCell>
        <mxCell id="a9qANa3PcaQQ9SdjPRjh-121" value="&amp;nbsp;-adult : int" style="text;whiteSpace=wrap;html=1;" vertex="1" parent="a9qANa3PcaQQ9SdjPRjh-113">
          <mxGeometry y="242" width="210" height="30" as="geometry" />
        </mxCell>
        <mxCell id="a9qANa3PcaQQ9SdjPRjh-122" value="&amp;nbsp;-child : int" style="text;whiteSpace=wrap;html=1;" vertex="1" parent="a9qANa3PcaQQ9SdjPRjh-113">
          <mxGeometry y="272" width="210" height="30" as="geometry" />
        </mxCell>
        <mxCell id="a9qANa3PcaQQ9SdjPRjh-123" value="&amp;nbsp;-infant : int" style="text;whiteSpace=wrap;html=1;" vertex="1" parent="a9qANa3PcaQQ9SdjPRjh-113">
          <mxGeometry y="302" width="210" height="30" as="geometry" />
        </mxCell>
        <mxCell id="a9qANa3PcaQQ9SdjPRjh-124" value="&amp;nbsp;-pet : int" style="text;whiteSpace=wrap;html=1;" vertex="1" parent="a9qANa3PcaQQ9SdjPRjh-113">
          <mxGeometry y="332" width="210" height="30" as="geometry" />
        </mxCell>
        <mxCell id="a9qANa3PcaQQ9SdjPRjh-125" value="&amp;nbsp;-status : int" style="text;whiteSpace=wrap;html=1;" vertex="1" parent="a9qANa3PcaQQ9SdjPRjh-113">
          <mxGeometry y="362" width="210" height="30" as="geometry" />
        </mxCell>
        <mxCell id="a9qANa3PcaQQ9SdjPRjh-126" value="&amp;nbsp;-bookAt : Date" style="text;whiteSpace=wrap;html=1;" vertex="1" parent="a9qANa3PcaQQ9SdjPRjh-113">
          <mxGeometry y="392" width="210" height="30" as="geometry" />
        </mxCell>
        <mxCell id="a9qANa3PcaQQ9SdjPRjh-127" value="" style="line;html=1;strokeWidth=1;align=left;verticalAlign=middle;spacingTop=-1;spacingLeft=3;spacingRight=3;rotatable=0;labelPosition=right;points=[];portConstraint=eastwest;" vertex="1" parent="a9qANa3PcaQQ9SdjPRjh-113">
          <mxGeometry y="422" width="210" height="8" as="geometry" />
        </mxCell>
        <mxCell id="a9qANa3PcaQQ9SdjPRjh-128" value="+Getter &amp;amp; Setter&amp;nbsp;" style="text;whiteSpace=wrap;html=1;" vertex="1" parent="a9qANa3PcaQQ9SdjPRjh-113">
          <mxGeometry y="430" width="210" height="28" as="geometry" />
        </mxCell>
        <mxCell id="a9qANa3PcaQQ9SdjPRjh-129" value="+addBooking(book:Object) :boolean" style="text;whiteSpace=wrap;html=1;" vertex="1" parent="a9qANa3PcaQQ9SdjPRjh-113">
          <mxGeometry y="458" width="210" height="28" as="geometry" />
        </mxCell>
        <mxCell id="a9qANa3PcaQQ9SdjPRjh-130" value="+getUserBookingHistory(userId:String) :Booking:Object" style="text;whiteSpace=wrap;html=1;" vertex="1" parent="a9qANa3PcaQQ9SdjPRjh-113">
          <mxGeometry y="486" width="210" height="34" as="geometry" />
        </mxCell>
        <mxCell id="a9qANa3PcaQQ9SdjPRjh-131" value="+acceptBooking(bookingId:String&amp;nbsp;) :void" style="text;whiteSpace=wrap;html=1;" vertex="1" parent="a9qANa3PcaQQ9SdjPRjh-113">
          <mxGeometry y="520" width="210" height="36" as="geometry" />
        </mxCell>
        <mxCell id="a9qANa3PcaQQ9SdjPRjh-132" value="+rejectBooking(bookingId:String&amp;nbsp;) :void" style="text;whiteSpace=wrap;html=1;" vertex="1" parent="a9qANa3PcaQQ9SdjPRjh-113">
          <mxGeometry y="556" width="210" height="30" as="geometry" />
        </mxCell>
        <mxCell id="a9qANa3PcaQQ9SdjPRjh-154" value="1" style="text;html=1;align=center;verticalAlign=middle;resizable=0;points=[];autosize=1;strokeColor=none;fillColor=none;" vertex="1" parent="1">
          <mxGeometry x="925" y="378" width="30" height="30" as="geometry" />
        </mxCell>
        <mxCell id="a9qANa3PcaQQ9SdjPRjh-155" value="" style="endArrow=diamondThin;endFill=1;endSize=24;html=1;rounded=0;exitX=0.005;exitY=0.95;exitDx=0;exitDy=0;exitPerimeter=0;entryX=0;entryY=0.759;entryDx=0;entryDy=0;entryPerimeter=0;" edge="1" parent="1" source="a9qANa3PcaQQ9SdjPRjh-65" target="a9qANa3PcaQQ9SdjPRjh-154">
          <mxGeometry width="160" relative="1" as="geometry">
            <mxPoint x="1000" y="667" as="sourcePoint" />
            <mxPoint x="930" y="410" as="targetPoint" />
            <Array as="points" />
          </mxGeometry>
        </mxCell>
        <mxCell id="a9qANa3PcaQQ9SdjPRjh-156" value="1...*" style="text;html=1;align=center;verticalAlign=middle;resizable=0;points=[];autosize=1;strokeColor=none;fillColor=none;" vertex="1" parent="1">
          <mxGeometry x="1030" y="400" width="40" height="30" as="geometry" />
        </mxCell>
        <mxCell id="a9qANa3PcaQQ9SdjPRjh-157" value="Employee" style="swimlane;fontStyle=2;align=center;verticalAlign=top;childLayout=stackLayout;horizontal=1;startSize=26;horizontalStack=0;resizeParent=1;resizeLast=0;collapsible=1;marginBottom=0;rounded=0;shadow=0;strokeWidth=1;" vertex="1" parent="1">
          <mxGeometry x="1760" y="520" width="200" height="108" as="geometry">
            <mxRectangle x="230" y="140" width="160" height="26" as="alternateBounds" />
          </mxGeometry>
        </mxCell>
        <mxCell id="a9qANa3PcaQQ9SdjPRjh-158" value="-userId: String" style="text;align=left;verticalAlign=top;spacingLeft=4;spacingRight=4;overflow=hidden;rotatable=0;points=[[0,0.5],[1,0.5]];portConstraint=eastwest;" vertex="1" parent="a9qANa3PcaQQ9SdjPRjh-157">
          <mxGeometry y="26" width="200" height="26" as="geometry" />
        </mxCell>
        <mxCell id="a9qANa3PcaQQ9SdjPRjh-159" value="-hotelId : String" style="text;align=left;verticalAlign=top;spacingLeft=4;spacingRight=4;overflow=hidden;rotatable=0;points=[[0,0.5],[1,0.5]];portConstraint=eastwest;rounded=0;shadow=0;html=0;" vertex="1" parent="a9qANa3PcaQQ9SdjPRjh-157">
          <mxGeometry y="52" width="200" height="18" as="geometry" />
        </mxCell>
        <mxCell id="a9qANa3PcaQQ9SdjPRjh-160" value="" style="line;html=1;strokeWidth=1;align=left;verticalAlign=middle;spacingTop=-1;spacingLeft=3;spacingRight=3;rotatable=0;labelPosition=right;points=[];portConstraint=eastwest;" vertex="1" parent="a9qANa3PcaQQ9SdjPRjh-157">
          <mxGeometry y="70" width="200" height="8" as="geometry" />
        </mxCell>
        <mxCell id="a9qANa3PcaQQ9SdjPRjh-161" value="+Getter &amp;amp; Setter&amp;nbsp;" style="text;whiteSpace=wrap;html=1;" vertex="1" parent="a9qANa3PcaQQ9SdjPRjh-157">
          <mxGeometry y="78" width="200" height="30" as="geometry" />
        </mxCell>
        <mxCell id="a9qANa3PcaQQ9SdjPRjh-162" value="Admin" style="swimlane;fontStyle=2;align=center;verticalAlign=top;childLayout=stackLayout;horizontal=1;startSize=26;horizontalStack=0;resizeParent=1;resizeLast=0;collapsible=1;marginBottom=0;rounded=0;shadow=0;strokeWidth=1;" vertex="1" parent="1">
          <mxGeometry x="1760" y="325" width="200" height="140" as="geometry">
            <mxRectangle x="230" y="140" width="160" height="26" as="alternateBounds" />
          </mxGeometry>
        </mxCell>
        <mxCell id="a9qANa3PcaQQ9SdjPRjh-163" value="-userId : String" style="text;whiteSpace=wrap;html=1;" vertex="1" parent="a9qANa3PcaQQ9SdjPRjh-162">
          <mxGeometry y="26" width="200" height="20" as="geometry" />
        </mxCell>
        <mxCell id="a9qANa3PcaQQ9SdjPRjh-164" value="-permission: String" style="text;whiteSpace=wrap;html=1;" vertex="1" parent="a9qANa3PcaQQ9SdjPRjh-162">
          <mxGeometry y="46" width="200" height="20" as="geometry" />
        </mxCell>
        <mxCell id="a9qANa3PcaQQ9SdjPRjh-165" value="" style="line;html=1;strokeWidth=1;align=left;verticalAlign=middle;spacingTop=-1;spacingLeft=3;spacingRight=3;rotatable=0;labelPosition=right;points=[];portConstraint=eastwest;" vertex="1" parent="a9qANa3PcaQQ9SdjPRjh-162">
          <mxGeometry y="66" width="200" height="8" as="geometry" />
        </mxCell>
        <mxCell id="a9qANa3PcaQQ9SdjPRjh-166" value="+Getter &amp;amp; Setter&amp;nbsp;" style="text;whiteSpace=wrap;html=1;" vertex="1" parent="a9qANa3PcaQQ9SdjPRjh-162">
          <mxGeometry y="74" width="200" height="30" as="geometry" />
        </mxCell>
        <mxCell id="a9qANa3PcaQQ9SdjPRjh-167" value="+acceptHotelowner(userid:String)&lt;br&gt;:boolean" style="text;whiteSpace=wrap;html=1;" vertex="1" parent="a9qANa3PcaQQ9SdjPRjh-162">
          <mxGeometry y="104" width="200" height="36" as="geometry" />
        </mxCell>
        <mxCell id="a9qANa3PcaQQ9SdjPRjh-168" value="Extends" style="endArrow=block;endSize=16;endFill=0;html=1;rounded=0;exitX=1.009;exitY=1.292;exitDx=0;exitDy=0;exitPerimeter=0;entryX=0;entryY=0.5;entryDx=0;entryDy=0;" edge="1" parent="1" source="a9qANa3PcaQQ9SdjPRjh-163" target="a9qANa3PcaQQ9SdjPRjh-9">
          <mxGeometry width="160" relative="1" as="geometry">
            <mxPoint x="1960" y="740" as="sourcePoint" />
            <mxPoint x="2200" y="290" as="targetPoint" />
          </mxGeometry>
        </mxCell>
        <mxCell id="a9qANa3PcaQQ9SdjPRjh-169" value="Extends" style="endArrow=block;endSize=16;endFill=0;html=1;rounded=0;exitX=0.997;exitY=0.176;exitDx=0;exitDy=0;exitPerimeter=0;entryX=0;entryY=0.25;entryDx=0;entryDy=0;" edge="1" parent="1" source="a9qANa3PcaQQ9SdjPRjh-159" target="a9qANa3PcaQQ9SdjPRjh-16">
          <mxGeometry width="160" relative="1" as="geometry">
            <mxPoint x="1734" y="820" as="sourcePoint" />
            <mxPoint x="2210" y="570" as="targetPoint" />
          </mxGeometry>
        </mxCell>
        <mxCell id="a9qANa3PcaQQ9SdjPRjh-170" value="1...*" style="text;html=1;align=center;verticalAlign=middle;resizable=0;points=[];autosize=1;strokeColor=none;fillColor=none;" vertex="1" parent="1">
          <mxGeometry x="1600" y="351.24" width="40" height="30" as="geometry" />
        </mxCell>
        <mxCell id="a9qANa3PcaQQ9SdjPRjh-171" value="1" style="text;html=1;align=center;verticalAlign=middle;resizable=0;points=[];autosize=1;strokeColor=none;fillColor=none;" vertex="1" parent="1">
          <mxGeometry x="1740" y="351.24" width="30" height="30" as="geometry" />
        </mxCell>
        <mxCell id="a9qANa3PcaQQ9SdjPRjh-172" value="" style="endArrow=diamondThin;endFill=1;endSize=24;html=1;rounded=0;entryX=-0.005;entryY=0.394;entryDx=0;entryDy=0;entryPerimeter=0;" edge="1" parent="1" target="a9qANa3PcaQQ9SdjPRjh-164">
          <mxGeometry width="160" relative="1" as="geometry">
            <mxPoint x="1600" y="380" as="sourcePoint" />
            <mxPoint x="1760" y="398" as="targetPoint" />
            <Array as="points">
              <mxPoint x="1670" y="380" />
            </Array>
          </mxGeometry>
        </mxCell>
        <mxCell id="a9qANa3PcaQQ9SdjPRjh-173" value="1...*" style="text;html=1;align=center;verticalAlign=middle;resizable=0;points=[];autosize=1;strokeColor=none;fillColor=none;" vertex="1" parent="1">
          <mxGeometry x="1350" y="321.24" width="40" height="30" as="geometry" />
        </mxCell>
        <mxCell id="a9qANa3PcaQQ9SdjPRjh-174" value="1" style="text;html=1;align=center;verticalAlign=middle;resizable=0;points=[];autosize=1;strokeColor=none;fillColor=none;" vertex="1" parent="1">
          <mxGeometry x="1241" y="325.24" width="30" height="30" as="geometry" />
        </mxCell>
        <mxCell id="a9qANa3PcaQQ9SdjPRjh-175" value="1" style="text;html=1;align=center;verticalAlign=middle;resizable=0;points=[];autosize=1;strokeColor=none;fillColor=none;" vertex="1" parent="1">
          <mxGeometry x="1720" y="580" width="30" height="30" as="geometry" />
        </mxCell>
        <mxCell id="a9qANa3PcaQQ9SdjPRjh-176" value="" style="endArrow=diamondThin;endFill=1;endSize=24;html=1;rounded=0;exitX=1;exitY=0.5;exitDx=0;exitDy=0;entryX=0;entryY=0.5;entryDx=0;entryDy=0;" edge="1" parent="1" source="a9qANa3PcaQQ9SdjPRjh-31" target="a9qANa3PcaQQ9SdjPRjh-161">
          <mxGeometry width="160" relative="1" as="geometry">
            <mxPoint x="1431" y="876.5" as="sourcePoint" />
            <mxPoint x="1567" y="876" as="targetPoint" />
            <Array as="points">
              <mxPoint x="1640" y="120" />
              <mxPoint x="1640" y="220" />
              <mxPoint x="1640" y="290" />
              <mxPoint x="1640" y="613" />
            </Array>
          </mxGeometry>
        </mxCell>
        <mxCell id="a9qANa3PcaQQ9SdjPRjh-177" value="1" style="text;html=1;align=center;verticalAlign=middle;resizable=0;points=[];autosize=1;strokeColor=none;fillColor=none;" vertex="1" parent="1">
          <mxGeometry x="922" y="130" width="30" height="30" as="geometry" />
        </mxCell>
        <mxCell id="a9qANa3PcaQQ9SdjPRjh-178" value="Customer" style="swimlane;fontStyle=2;align=center;verticalAlign=top;childLayout=stackLayout;horizontal=1;startSize=26;horizontalStack=0;resizeParent=1;resizeLast=0;collapsible=1;marginBottom=0;rounded=0;shadow=0;strokeWidth=1;" vertex="1" parent="1">
          <mxGeometry x="1760" y="170" width="200" height="84" as="geometry">
            <mxRectangle x="230" y="140" width="160" height="26" as="alternateBounds" />
          </mxGeometry>
        </mxCell>
        <mxCell id="a9qANa3PcaQQ9SdjPRjh-179" value="-userId : String" style="text;whiteSpace=wrap;html=1;" vertex="1" parent="a9qANa3PcaQQ9SdjPRjh-178">
          <mxGeometry y="26" width="200" height="20" as="geometry" />
        </mxCell>
        <mxCell id="a9qANa3PcaQQ9SdjPRjh-180" value="" style="line;html=1;strokeWidth=1;align=left;verticalAlign=middle;spacingTop=-1;spacingLeft=3;spacingRight=3;rotatable=0;labelPosition=right;points=[];portConstraint=eastwest;" vertex="1" parent="a9qANa3PcaQQ9SdjPRjh-178">
          <mxGeometry y="46" width="200" height="8" as="geometry" />
        </mxCell>
        <mxCell id="a9qANa3PcaQQ9SdjPRjh-181" value="+Getter &amp;amp; Setter&amp;nbsp;" style="text;whiteSpace=wrap;html=1;" vertex="1" parent="a9qANa3PcaQQ9SdjPRjh-178">
          <mxGeometry y="54" width="200" height="30" as="geometry" />
        </mxCell>
        <mxCell id="a9qANa3PcaQQ9SdjPRjh-182" value="Extends" style="endArrow=block;endSize=16;endFill=0;html=1;rounded=0;exitX=1;exitY=1;exitDx=0;exitDy=0;entryX=0.005;entryY=0.231;entryDx=0;entryDy=0;entryPerimeter=0;" edge="1" parent="1" source="a9qANa3PcaQQ9SdjPRjh-179" target="a9qANa3PcaQQ9SdjPRjh-4">
          <mxGeometry width="160" relative="1" as="geometry">
            <mxPoint x="1976" y="160" as="sourcePoint" />
            <mxPoint x="1850" y="720" as="targetPoint" />
          </mxGeometry>
        </mxCell>
        <mxCell id="a9qANa3PcaQQ9SdjPRjh-184" value="1" style="text;html=1;align=center;verticalAlign=middle;resizable=0;points=[];autosize=1;strokeColor=none;fillColor=none;" vertex="1" parent="1">
          <mxGeometry x="1720" y="530" width="30" height="30" as="geometry" />
        </mxCell>
        <mxCell id="a9qANa3PcaQQ9SdjPRjh-186" value="1...*" style="text;html=1;align=center;verticalAlign=middle;resizable=0;points=[];autosize=1;strokeColor=none;fillColor=none;" vertex="1" parent="1">
          <mxGeometry x="1580" y="190" width="40" height="30" as="geometry" />
        </mxCell>
        <mxCell id="a9qANa3PcaQQ9SdjPRjh-187" value="1" style="text;html=1;align=center;verticalAlign=middle;resizable=0;points=[];autosize=1;strokeColor=none;fillColor=none;" vertex="1" parent="1">
          <mxGeometry x="1730" y="180" width="30" height="30" as="geometry" />
        </mxCell>
        <mxCell id="a9qANa3PcaQQ9SdjPRjh-188" value="" style="endArrow=diamondThin;endFill=1;endSize=24;html=1;rounded=0;exitX=1.005;exitY=0.885;exitDx=0;exitDy=0;exitPerimeter=0;" edge="1" parent="1">
          <mxGeometry width="160" relative="1" as="geometry">
            <mxPoint x="1591" y="211" as="sourcePoint" />
            <mxPoint x="1760" y="210" as="targetPoint" />
          </mxGeometry>
        </mxCell>
        <mxCell id="a9qANa3PcaQQ9SdjPRjh-189" value="" style="endArrow=open;html=1;endSize=12;startArrow=diamondThin;startSize=14;startFill=0;edgeStyle=orthogonalEdgeStyle;rounded=0;exitX=-0.009;exitY=0.114;exitDx=0;exitDy=0;exitPerimeter=0;" edge="1" parent="1" source="a9qANa3PcaQQ9SdjPRjh-178" target="a9qANa3PcaQQ9SdjPRjh-28">
          <mxGeometry relative="1" as="geometry">
            <mxPoint x="1600" y="100" as="sourcePoint" />
            <mxPoint x="1760" y="100" as="targetPoint" />
            <Array as="points">
              <mxPoint x="1700" y="180" />
              <mxPoint x="1700" y="50" />
            </Array>
          </mxGeometry>
        </mxCell>
        <mxCell id="a9qANa3PcaQQ9SdjPRjh-190" value="0...*" style="edgeLabel;resizable=0;html=1;align=left;verticalAlign=top;" connectable="0" vertex="1" parent="a9qANa3PcaQQ9SdjPRjh-189">
          <mxGeometry x="-1" relative="1" as="geometry">
            <mxPoint x="-30" y="-31" as="offset" />
          </mxGeometry>
        </mxCell>
        <mxCell id="a9qANa3PcaQQ9SdjPRjh-191" value="1" style="edgeLabel;resizable=0;html=1;align=right;verticalAlign=top;" connectable="0" vertex="1" parent="a9qANa3PcaQQ9SdjPRjh-189">
          <mxGeometry x="1" relative="1" as="geometry">
            <mxPoint x="10" as="offset" />
          </mxGeometry>
        </mxCell>
        <mxCell id="a9qANa3PcaQQ9SdjPRjh-192" value="" style="endArrow=open;html=1;endSize=12;startArrow=diamondThin;startSize=14;startFill=0;edgeStyle=orthogonalEdgeStyle;rounded=0;exitX=0.001;exitY=-0.207;exitDx=0;exitDy=0;exitPerimeter=0;entryX=1;entryY=0.304;entryDx=0;entryDy=0;entryPerimeter=0;" edge="1" parent="1" source="a9qANa3PcaQQ9SdjPRjh-163" target="a9qANa3PcaQQ9SdjPRjh-30">
          <mxGeometry relative="1" as="geometry">
            <mxPoint x="1800" y="231" as="sourcePoint" />
            <mxPoint x="930" y="90" as="targetPoint" />
            <Array as="points">
              <mxPoint x="1660" y="347" />
              <mxPoint x="1660" y="90" />
            </Array>
          </mxGeometry>
        </mxCell>
        <mxCell id="a9qANa3PcaQQ9SdjPRjh-193" value="0...*" style="edgeLabel;resizable=0;html=1;align=left;verticalAlign=top;" connectable="0" vertex="1" parent="a9qANa3PcaQQ9SdjPRjh-192">
          <mxGeometry x="-1" relative="1" as="geometry">
            <mxPoint x="-30" y="-31" as="offset" />
          </mxGeometry>
        </mxCell>
        <mxCell id="a9qANa3PcaQQ9SdjPRjh-194" value="1" style="edgeLabel;resizable=0;html=1;align=right;verticalAlign=top;" connectable="0" vertex="1" parent="a9qANa3PcaQQ9SdjPRjh-192">
          <mxGeometry x="1" relative="1" as="geometry">
            <mxPoint x="15" as="offset" />
          </mxGeometry>
        </mxCell>
        <mxCell id="a9qANa3PcaQQ9SdjPRjh-195" value="" style="endArrow=diamondThin;endFill=1;endSize=24;html=1;rounded=0;exitX=1.083;exitY=0.879;exitDx=0;exitDy=0;exitPerimeter=0;" edge="1" parent="1" source="a9qANa3PcaQQ9SdjPRjh-196">
          <mxGeometry width="160" relative="1" as="geometry">
            <mxPoint x="850" y="790" as="sourcePoint" />
            <mxPoint x="910" y="980" as="targetPoint" />
            <Array as="points">
              <mxPoint x="912" y="1050" />
            </Array>
          </mxGeometry>
        </mxCell>
        <mxCell id="a9qANa3PcaQQ9SdjPRjh-196" value="1...*" style="text;html=1;align=center;verticalAlign=middle;resizable=0;points=[];autosize=1;strokeColor=none;fillColor=none;" vertex="1" parent="1">
          <mxGeometry x="1340" y="1019" width="40" height="30" as="geometry" />
        </mxCell>
        <mxCell id="a9qANa3PcaQQ9SdjPRjh-197" value="1" style="text;html=1;align=center;verticalAlign=middle;resizable=0;points=[];autosize=1;strokeColor=none;fillColor=none;" vertex="1" parent="1">
          <mxGeometry x="920" y="980" width="30" height="30" as="geometry" />
        </mxCell>
        <mxCell id="a9qANa3PcaQQ9SdjPRjh-201" value="1...*" style="text;html=1;align=center;verticalAlign=middle;resizable=0;points=[];autosize=1;strokeColor=none;fillColor=none;" vertex="1" parent="1">
          <mxGeometry x="1580" y="899" width="40" height="30" as="geometry" />
        </mxCell>
        <mxCell id="a9qANa3PcaQQ9SdjPRjh-202" value="1" style="text;html=1;align=center;verticalAlign=middle;resizable=0;points=[];autosize=1;strokeColor=none;fillColor=none;" vertex="1" parent="1">
          <mxGeometry x="1870" y="628" width="30" height="30" as="geometry" />
        </mxCell>
        <mxCell id="a9qANa3PcaQQ9SdjPRjh-203" value="" style="endArrow=diamondThin;endFill=0;endSize=24;html=1;rounded=0;entryX=0.5;entryY=1;entryDx=0;entryDy=0;exitX=1;exitY=0.5;exitDx=0;exitDy=0;" edge="1" parent="1" source="a9qANa3PcaQQ9SdjPRjh-72" target="a9qANa3PcaQQ9SdjPRjh-161">
          <mxGeometry width="160" relative="1" as="geometry">
            <mxPoint x="1580" y="750" as="sourcePoint" />
            <mxPoint x="1740" y="750" as="targetPoint" />
            <Array as="points">
              <mxPoint x="1860" y="930" />
            </Array>
          </mxGeometry>
        </mxCell>
        <mxCell id="a9qANa3PcaQQ9SdjPRjh-207" value="" style="endArrow=diamondThin;endFill=0;endSize=24;html=1;rounded=0;entryX=-0.003;entryY=0.667;entryDx=0;entryDy=0;entryPerimeter=0;exitX=-0.03;exitY=-0.081;exitDx=0;exitDy=0;exitPerimeter=0;" edge="1" parent="1" source="a9qANa3PcaQQ9SdjPRjh-211" target="a9qANa3PcaQQ9SdjPRjh-166">
          <mxGeometry width="160" relative="1" as="geometry">
            <mxPoint x="1580" y="836" as="sourcePoint" />
            <mxPoint x="1860" y="714" as="targetPoint" />
            <Array as="points">
              <mxPoint x="1680" y="1017" />
              <mxPoint x="1680" y="420" />
              <mxPoint x="1710" y="420" />
            </Array>
          </mxGeometry>
        </mxCell>
        <mxCell id="a9qANa3PcaQQ9SdjPRjh-208" value="1" style="text;html=1;align=center;verticalAlign=middle;resizable=0;points=[];autosize=1;strokeColor=none;fillColor=none;" vertex="1" parent="1">
          <mxGeometry x="1740" y="390" width="30" height="30" as="geometry" />
        </mxCell>
        <mxCell id="a9qANa3PcaQQ9SdjPRjh-209" value="1...*" style="text;html=1;align=center;verticalAlign=middle;resizable=0;points=[];autosize=1;strokeColor=none;fillColor=none;" vertex="1" parent="1">
          <mxGeometry x="1580" y="989" width="40" height="30" as="geometry" />
        </mxCell>
        <mxCell id="a9qANa3PcaQQ9SdjPRjh-210" value="" style="endArrow=diamondThin;endFill=0;endSize=24;html=1;rounded=0;entryX=0;entryY=0.75;entryDx=0;entryDy=0;exitX=-0.057;exitY=1.036;exitDx=0;exitDy=0;exitPerimeter=0;" edge="1" parent="1" source="a9qANa3PcaQQ9SdjPRjh-211" target="a9qANa3PcaQQ9SdjPRjh-181">
          <mxGeometry width="160" relative="1" as="geometry">
            <mxPoint x="1580" y="869.5" as="sourcePoint" />
            <mxPoint x="1759" y="452.5" as="targetPoint" />
            <Array as="points">
              <mxPoint x="1650" y="1050" />
              <mxPoint x="1650" y="670" />
              <mxPoint x="1650" y="247" />
              <mxPoint x="1700" y="247" />
            </Array>
          </mxGeometry>
        </mxCell>
        <mxCell id="a9qANa3PcaQQ9SdjPRjh-211" value="1...*" style="text;html=1;align=center;verticalAlign=middle;resizable=0;points=[];autosize=1;strokeColor=none;fillColor=none;" vertex="1" parent="1">
          <mxGeometry x="1580" y="1019" width="40" height="30" as="geometry" />
        </mxCell>
        <mxCell id="a9qANa3PcaQQ9SdjPRjh-212" value="1" style="text;html=1;align=center;verticalAlign=middle;resizable=0;points=[];autosize=1;strokeColor=none;fillColor=none;" vertex="1" parent="1">
          <mxGeometry x="1735" y="218" width="30" height="30" as="geometry" />
        </mxCell>
        <mxCell id="a9qANa3PcaQQ9SdjPRjh-220" value="1...*" style="text;html=1;align=center;verticalAlign=middle;resizable=0;points=[];autosize=1;strokeColor=none;fillColor=none;" vertex="1" parent="1">
          <mxGeometry x="1350" y="710" width="40" height="30" as="geometry" />
        </mxCell>
        <mxCell id="a9qANa3PcaQQ9SdjPRjh-221" value="1" style="text;html=1;align=center;verticalAlign=middle;resizable=0;points=[];autosize=1;strokeColor=none;fillColor=none;" vertex="1" parent="1">
          <mxGeometry x="1270" y="640" width="30" height="30" as="geometry" />
        </mxCell>
        <mxCell id="a9qANa3PcaQQ9SdjPRjh-222" value="" style="endArrow=diamondThin;endFill=1;endSize=24;html=1;rounded=0;exitX=-0.001;exitY=0.549;exitDx=0;exitDy=0;entryX=1;entryY=0.25;entryDx=0;entryDy=0;exitPerimeter=0;" edge="1" parent="1" source="a9qANa3PcaQQ9SdjPRjh-131" target="a9qANa3PcaQQ9SdjPRjh-95">
          <mxGeometry width="160" relative="1" as="geometry">
            <mxPoint x="1550" y="-257" as="sourcePoint" />
            <mxPoint x="1320" y="-260" as="targetPoint" />
            <Array as="points">
              <mxPoint x="1290" y="700" />
            </Array>
          </mxGeometry>
        </mxCell>
        <mxCell id="a9qANa3PcaQQ9SdjPRjh-223" value="" style="endArrow=diamondThin;endFill=1;endSize=24;html=1;rounded=0;exitX=0.001;exitY=0.32;exitDx=0;exitDy=0;entryX=0.159;entryY=1.222;entryDx=0;entryDy=0;entryPerimeter=0;exitPerimeter=0;" edge="1" parent="1" source="a9qANa3PcaQQ9SdjPRjh-95" target="a9qANa3PcaQQ9SdjPRjh-225">
          <mxGeometry width="160" relative="1" as="geometry">
            <mxPoint x="1005" y="20" as="sourcePoint" />
            <mxPoint x="840" y="960" as="targetPoint" />
            <Array as="points" />
          </mxGeometry>
        </mxCell>
        <mxCell id="a9qANa3PcaQQ9SdjPRjh-224" value="1" style="text;html=1;align=center;verticalAlign=middle;resizable=0;points=[];autosize=1;strokeColor=none;fillColor=none;" vertex="1" parent="1">
          <mxGeometry x="1000" y="670" width="30" height="30" as="geometry" />
        </mxCell>
        <mxCell id="a9qANa3PcaQQ9SdjPRjh-225" value="1" style="text;html=1;align=center;verticalAlign=middle;resizable=0;points=[];autosize=1;strokeColor=none;fillColor=none;" vertex="1" parent="1">
          <mxGeometry x="920" y="660" width="30" height="30" as="geometry" />
        </mxCell>
        <mxCell id="a9qANa3PcaQQ9SdjPRjh-229" value="Service" style="swimlane;fontStyle=0;align=center;verticalAlign=top;childLayout=stackLayout;horizontal=1;startSize=26;horizontalStack=0;resizeParent=1;resizeLast=0;collapsible=1;marginBottom=0;rounded=0;shadow=0;strokeWidth=1;" vertex="1" parent="1">
          <mxGeometry x="1370" y="1190" width="220" height="160" as="geometry">
            <mxRectangle x="130" y="380" width="160" height="26" as="alternateBounds" />
          </mxGeometry>
        </mxCell>
        <mxCell id="a9qANa3PcaQQ9SdjPRjh-230" value="-serviceId: int" style="text;align=left;verticalAlign=top;spacingLeft=4;spacingRight=4;overflow=hidden;rotatable=0;points=[[0,0.5],[1,0.5]];portConstraint=eastwest;" vertex="1" parent="a9qANa3PcaQQ9SdjPRjh-229">
          <mxGeometry y="26" width="220" height="26" as="geometry" />
        </mxCell>
        <mxCell id="a9qANa3PcaQQ9SdjPRjh-231" value="-serviceType: Int" style="text;align=left;verticalAlign=top;spacingLeft=4;spacingRight=4;overflow=hidden;rotatable=0;points=[[0,0.5],[1,0.5]];portConstraint=eastwest;rounded=0;shadow=0;html=0;" vertex="1" parent="a9qANa3PcaQQ9SdjPRjh-229">
          <mxGeometry y="52" width="220" height="26" as="geometry" />
        </mxCell>
        <mxCell id="a9qANa3PcaQQ9SdjPRjh-232" value="&amp;nbsp;-serviceName: String" style="text;whiteSpace=wrap;html=1;" vertex="1" parent="a9qANa3PcaQQ9SdjPRjh-229">
          <mxGeometry y="78" width="220" height="32" as="geometry" />
        </mxCell>
        <mxCell id="a9qANa3PcaQQ9SdjPRjh-242" value="" style="line;html=1;strokeWidth=1;align=left;verticalAlign=middle;spacingTop=-1;spacingLeft=3;spacingRight=3;rotatable=0;labelPosition=right;points=[];portConstraint=eastwest;" vertex="1" parent="a9qANa3PcaQQ9SdjPRjh-229">
          <mxGeometry y="110" width="220" height="8" as="geometry" />
        </mxCell>
        <mxCell id="a9qANa3PcaQQ9SdjPRjh-243" value="+Getter &amp;amp; Setter&amp;nbsp;" style="text;whiteSpace=wrap;html=1;" vertex="1" parent="a9qANa3PcaQQ9SdjPRjh-229">
          <mxGeometry y="118" width="220" height="28" as="geometry" />
        </mxCell>
        <mxCell id="a9qANa3PcaQQ9SdjPRjh-244" value="1" style="text;html=1;align=center;verticalAlign=middle;resizable=0;points=[];autosize=1;strokeColor=none;fillColor=none;" vertex="1" parent="1">
          <mxGeometry x="810" y="989" width="30" height="30" as="geometry" />
        </mxCell>
        <mxCell id="a9qANa3PcaQQ9SdjPRjh-245" value="" style="endArrow=diamondThin;endFill=1;endSize=24;html=1;rounded=0;exitX=1.083;exitY=0.879;exitDx=0;exitDy=0;exitPerimeter=0;" edge="1" parent="1">
          <mxGeometry width="160" relative="1" as="geometry">
            <mxPoint x="1370" y="1276" as="sourcePoint" />
            <mxPoint x="860" y="980" as="targetPoint" />
            <Array as="points">
              <mxPoint x="860" y="1280" />
            </Array>
          </mxGeometry>
        </mxCell>
        <mxCell id="a9qANa3PcaQQ9SdjPRjh-246" value="1...*" style="text;html=1;align=center;verticalAlign=middle;resizable=0;points=[];autosize=1;strokeColor=none;fillColor=none;" vertex="1" parent="1">
          <mxGeometry x="1330" y="1240" width="40" height="30" as="geometry" />
        </mxCell>
        <mxCell id="a9qANa3PcaQQ9SdjPRjh-247" value="" style="endArrow=diamondThin;endFill=0;endSize=24;html=1;rounded=0;exitX=1;exitY=0.5;exitDx=0;exitDy=0;" edge="1" parent="1">
          <mxGeometry width="160" relative="1" as="geometry">
            <mxPoint x="1590" y="1282" as="sourcePoint" />
            <mxPoint x="1920" y="630" as="targetPoint" />
            <Array as="points">
              <mxPoint x="1920" y="1282" />
            </Array>
          </mxGeometry>
        </mxCell>
        <mxCell id="a9qANa3PcaQQ9SdjPRjh-248" value="1" style="text;html=1;align=center;verticalAlign=middle;resizable=0;points=[];autosize=1;strokeColor=none;fillColor=none;" vertex="1" parent="1">
          <mxGeometry x="1920" y="630" width="30" height="30" as="geometry" />
        </mxCell>
        <mxCell id="a9qANa3PcaQQ9SdjPRjh-250" value="1...*" style="text;html=1;align=center;verticalAlign=middle;resizable=0;points=[];autosize=1;strokeColor=none;fillColor=none;" vertex="1" parent="1">
          <mxGeometry x="1600" y="1250" width="40" height="30" as="geometry" />
        </mxCell>
      </root>
    </mxGraphModel>
  </diagram>
</mxfile>
